<svg width="36" height="36" viewBox="0 0 36 36" fill="none" xmlns="http://www.w3.org/2000/svg">
<path d="M10.81 36C9.81907 36 8.97049 35.6472 8.26423 34.9416C7.55798 34.236 7.20546 33.3888 7.20666 32.4C7.20666 31.41 7.55978 30.5622 8.26604 29.8566C8.97229 29.151 9.82027 28.7988 10.81 28.8C11.8009 28.8 12.6495 29.1528 13.3557 29.8584C14.062 30.564 14.4145 31.4112 14.4133 32.4C14.4133 33.39 14.0602 34.2378 13.3539 34.9434C12.6477 35.649 11.7997 36.0012 10.81 36ZM28.8266 36C27.8357 36 26.9871 35.6472 26.2809 34.9416C25.5746 34.236 25.2221 33.3888 25.2233 32.4C25.2233 31.41 25.5764 30.5622 26.2827 29.8566C26.9889 29.151 27.8369 28.7988 28.8266 28.8C29.8175 28.8 30.6661 29.1528 31.3724 29.8584C32.0786 30.564 32.4312 31.4112 32.43 32.4C32.43 33.39 32.0768 34.2378 31.3706 34.9434C30.6643 35.649 29.8163 36.0012 28.8266 36ZM9.27857 7.2L13.6026 16.2H26.2142L31.1688 7.2H9.27857ZM7.56699 3.6H34.1415C34.8322 3.6 35.3577 3.9078 35.718 4.5234C36.0783 5.139 36.0933 5.7612 35.763 6.39L29.3671 17.91C29.0368 18.51 28.5936 18.975 28.0375 19.305C27.4814 19.635 26.8736 19.8 26.2142 19.8H12.7918L10.81 23.4H32.43V27H10.81C9.45874 27 8.4378 26.4072 7.74716 25.2216C7.05652 24.036 7.02649 22.8588 7.65707 21.69L10.0893 17.28L3.60333 3.6H0V0H5.85541L7.56699 3.6Z" fill="black"/>
</svg>
