<svg width="182" height="32" viewBox="0 0 182 32" fill="none" xmlns="http://www.w3.org/2000/svg">
<path d="M20.444 28.8973L20.216 29.176C20.0471 29.3449 19.76 29.5644 19.3547 29.8347C18.9662 30.088 18.4933 30.3498 17.936 30.62C17.3956 30.8733 16.6693 31.0844 15.7573 31.2533C14.8453 31.4391 13.8658 31.532 12.8187 31.532C10.6062 31.532 8.71467 31.1689 7.144 30.4427C5.57333 29.6996 4.34044 28.6271 3.44533 27.2253C2.56711 25.8067 1.93378 24.2107 1.54533 22.4373C1.15689 20.6471 0.962667 18.5782 0.962667 16.2307C0.962667 13.7311 1.15689 11.5778 1.54533 9.77067C1.93378 7.94667 2.57556 6.35067 3.47067 4.98267C4.38267 3.59778 5.63244 2.55911 7.22 1.86667C8.80756 1.17422 10.7413 0.828001 13.0213 0.828001C14.0684 0.828001 15.048 0.92089 15.96 1.10667C16.8889 1.29244 17.6151 1.50356 18.1387 1.74C18.6791 1.97644 19.1604 2.24667 19.5827 2.55067C20.0218 2.85467 20.292 3.06578 20.3933 3.184C20.5116 3.30222 20.596 3.39511 20.6467 3.46267L20.2667 9.28933H16.416L15.0987 6.27467C14.7947 6.19022 14.5413 6.148 14.3387 6.148C13.2071 6.148 12.3373 6.40978 11.7293 6.93333C11.1213 7.44 10.6569 8.44489 10.336 9.948C10.0151 11.4342 9.85467 13.5791 9.85467 16.3827C9.85467 18.0547 9.956 19.5156 10.1587 20.7653C10.3782 22.0151 10.64 22.9778 10.944 23.6533C11.248 24.312 11.6111 24.844 12.0333 25.2493C12.4556 25.6547 12.8356 25.9164 13.1733 26.0347C13.5111 26.136 13.8742 26.1867 14.2627 26.1867C15.124 26.1867 16.0276 26.0853 16.9733 25.8827C17.9191 25.6631 18.696 25.3338 19.304 24.8947L20.444 28.8973ZM35.3679 27.6307C35.2666 27.8671 35.0555 28.1796 34.7346 28.568C34.4306 28.9564 34.0252 29.3871 33.5186 29.86C33.0119 30.316 32.387 30.7044 31.6439 31.0253C30.9008 31.3631 30.1492 31.532 29.3892 31.532C27.0079 31.532 25.3021 30.8227 24.2719 29.404C23.2586 27.9853 22.7519 25.6209 22.7519 22.3107V13.292L21.8652 12.38V9.46667H31.0612V23.9067C31.0444 24.6667 31.171 25.2324 31.4412 25.604C31.7115 25.9587 32.2012 26.136 32.9106 26.136C33.0119 26.136 33.1048 26.136 33.1892 26.136C33.2737 26.1191 33.3581 26.1022 33.4426 26.0853C33.527 26.0516 33.5946 26.0262 33.6452 26.0093C33.7128 25.9924 33.7888 25.9671 33.8732 25.9333C33.9577 25.8827 34.0252 25.8404 34.0759 25.8067C34.1266 25.7729 34.1941 25.7307 34.2786 25.68C34.363 25.6124 34.4221 25.5618 34.4559 25.528C34.5066 25.4942 34.5741 25.4436 34.6586 25.376C34.7599 25.2916 34.8359 25.2324 34.8866 25.1987V13.292L33.5186 12.38V9.46667H43.1706V31H36.1532L35.3679 27.6307ZM53.3184 31.532C51.7308 31.532 50.1264 31.2702 48.505 30.7467C46.8837 30.2062 45.845 29.6827 45.389 29.176L46.0477 25.0973C46.6219 25.6547 47.5761 26.136 48.9104 26.5413C50.2615 26.9467 51.6379 27.1493 53.0397 27.1493C54.053 27.1493 54.7455 27.0227 55.117 26.7693C55.5055 26.516 55.6997 26.1613 55.6997 25.7053C55.6997 25.2662 55.3619 24.8778 54.6864 24.54C54.0108 24.1853 52.913 23.78 51.393 23.324C47.4579 22.1418 45.4904 19.6929 45.4904 15.9773C45.4904 14.4573 45.9295 13.1569 46.8077 12.076C47.6859 10.9782 48.809 10.1844 50.177 9.69467C51.545 9.20489 53.0735 8.96 54.7624 8.96C57.6504 8.96 59.7784 9.492 61.1464 10.556C61.4504 10.8431 61.6024 10.9867 61.6024 10.9867L60.4877 14.6093C59.373 13.5116 57.8361 12.9627 55.877 12.9627C54.2726 12.9627 53.4704 13.4356 53.4704 14.3813C53.4704 14.6516 53.5295 14.8796 53.6477 15.0653C53.7659 15.2342 53.9601 15.3862 54.2304 15.5213C54.5175 15.6396 54.7961 15.7409 55.0664 15.8253C55.3366 15.8929 55.7166 15.9942 56.2064 16.1293C56.6961 16.2476 57.1184 16.3573 57.473 16.4587C59.449 17.1173 60.8846 18.0462 61.7797 19.2453C62.6748 20.4444 63.1224 21.9391 63.1224 23.7293C63.1224 28.9311 59.8544 31.532 53.3184 31.532ZM71.2126 31.532C68.9326 31.532 67.3366 30.848 66.4246 29.48C65.5295 28.112 65.0819 25.7982 65.0819 22.5387V13.9253H63.3339V10.404L66.3233 9.46667L68.9073 3.564H73.3659V9.46667H77.5206V13.9253H73.2899V23.3493C73.2899 24.7004 73.4841 25.5956 73.8726 26.0347C74.261 26.4738 74.8606 26.6933 75.6713 26.6933C76.0259 26.6933 76.3468 26.6511 76.6339 26.5667C76.921 26.4822 77.1575 26.364 77.3433 26.212V29.6573C77.0899 29.9107 76.7606 30.164 76.3553 30.4173C75.9499 30.6538 75.2744 30.8987 74.3286 31.152C73.3997 31.4053 72.361 31.532 71.2126 31.532ZM89.9412 28.492C90.6844 28.492 91.2501 28.188 91.6386 27.58C92.0439 26.9551 92.2466 26.1022 92.2466 25.0213V17.016C92.2466 13.7227 91.4697 12.076 89.9159 12.076C89.1897 12.076 88.6239 12.3716 88.2186 12.9627C87.8132 13.5538 87.6106 14.3898 87.6106 15.4707V23.704C87.6106 26.896 88.3875 28.492 89.9412 28.492ZM89.7386 31.532C85.871 31.532 83.0421 30.6538 81.2519 28.8973C79.4617 27.1409 78.5666 24.3373 78.5666 20.4867C78.5666 16.6698 79.4701 13.7987 81.2773 11.8733C83.0844 9.93111 86.023 8.96 90.0933 8.96C94.0621 8.96 96.9248 9.88889 98.6813 11.7467C100.455 13.5876 101.341 16.3827 101.341 20.132C101.341 24.0164 100.404 26.8876 98.5293 28.7453C96.6715 30.6031 93.7412 31.532 89.7386 31.532ZM112.284 31H104.101V14.6093L102.581 13.672V10.9613L108.028 9.46667H112.334V12.7347C112.419 12.6164 112.537 12.4644 112.689 12.2787C112.858 12.076 113.162 11.7636 113.601 11.3413C114.04 10.9191 114.488 10.5476 114.944 10.2267C115.417 9.90578 115.982 9.61867 116.641 9.36533C117.317 9.09511 117.984 8.96 118.642 8.96C120.331 8.96 121.623 9.28089 122.518 9.92267C123.413 10.5644 124.047 11.6116 124.418 13.064C124.993 12.0676 125.871 11.1387 127.053 10.2773C128.252 9.39911 129.569 8.96 131.005 8.96C132.593 8.96 133.825 9.23867 134.704 9.796C135.599 10.3364 136.249 11.2653 136.654 12.5827C137.06 13.9 137.262 15.7578 137.262 18.156V31H129.029V17.4213C129.029 16.6782 128.852 16.0956 128.497 15.6733C128.142 15.2511 127.602 15.04 126.876 15.04C126.386 15.04 125.719 15.4453 124.874 16.256C124.925 17.0667 124.95 17.9449 124.95 18.8907V31H116.59V17.4213C116.641 15.8338 115.965 15.04 114.564 15.04C114.462 15.04 114.361 15.0484 114.26 15.0653C114.175 15.0822 114.091 15.0991 114.006 15.116C113.939 15.1329 113.854 15.1667 113.753 15.2173C113.669 15.2511 113.593 15.2849 113.525 15.3187C113.457 15.3356 113.381 15.3778 113.297 15.4453C113.213 15.496 113.145 15.5382 113.094 15.572C113.044 15.6058 112.968 15.6649 112.866 15.7493C112.782 15.8169 112.714 15.8676 112.664 15.9013C112.63 15.9351 112.562 15.9942 112.461 16.0787C112.377 16.1462 112.317 16.1969 112.284 16.2307V31ZM150.433 31V1.30933H159.072V31H150.433ZM167.241 31V8.02267H161.313V1.30933H181.732V8.02267H175.804V31H167.241Z" fill="#A586F6"/>
</svg>
